<svg xmlns="http://www.w3.org/2000/svg" viewBox="0 0 100 100" width="100" height="100">
  <defs>
    <clipPath id="cartagenaClip">
      <path d="M20 30 L80 30 L80 75 C80 90, 50 98, 50 98 C50 98, 20 90, 20 75 Z" />
    </clipPath>
  </defs>
  <path d="M25 30 L25 15 L35 15 L35 22 L45 22 L45 15 L55 15 L55 22 L65 22 L65 15 L75 15 L75 30 Z" fill="#eab308" stroke="#1e293b" stroke-width="1.5" />
  <path d="M20 30 L80 30 L80 75 C80 90, 50 98, 50 98 C50 98, 20 90, 20 75 Z" fill="#ffffff" stroke="#1e293b" stroke-width="3" />
  <g clip-path="url(#cartagenaClip)">
    <rect x="20" y="30" width="15" height="70" fill="#1e293b" />
    <rect x="50" y="30" width="15" height="70" fill="#1e293b" />
    <circle cx="50" cy="65" r="15" fill="#dc2626" />
    <text x="50" y="70" font-family="'Space Grotesk', sans-serif" font-weight="900" font-size="13" fill="#ffffff" text-anchor="middle">FCC</text>
  </g>
</svg>
