<svg xmlns="http://www.w3.org/2000/svg" viewBox="0 0 100 100" width="100" height="100">
  <path d="M20 15 L80 15 L80 65 C80 82, 50 95, 50 95 C50 95, 20 82, 20 65 Z" fill="#0f172a" stroke="#334155" stroke-width="3" />
  <path d="M25 20 L75 20 L75 62 C75 76, 50 88, 50 88 C50 88, 25 76, 25 62 Z" fill="#1e293b" opacity="0.6" />
  <circle cx="50" cy="50" r="16" fill="none" stroke="#475569" stroke-width="1.5" />
  <path d="M 50 34 L 50 66 M 34 50 L 66 50 M 39 39 L 61 61 M 39 61 L 61 39" stroke="#475569" stroke-width="1.5" />
  <circle cx="50" cy="50" r="5" fill="#3b82f6" />
</svg>
