<svg xmlns="http://www.w3.org/2000/svg" viewBox="0 0 100 100" width="100" height="100">
  <defs>
    <clipPath id="avilesClip">
      <path d="M20 30 L80 30 L80 75 C80 90, 50 98, 50 98 C50 98, 20 90, 20 75 Z" />
    </clipPath>
  </defs>
  <path d="M25 30 C 25 10, 75 10, 75 30 Z" fill="#eab308" stroke="#cca10a" stroke-width="1" />
  <circle cx="50" cy="14" r="3" fill="#ef4444" />
  <path d="M20 30 L80 30 L80 75 C80 90, 50 98, 50 98 C50 98, 20 90, 20 75 Z" fill="#1d4ed8" stroke="#eab308" stroke-width="3.5" />
  <g clip-path="url(#avilesClip)">
    <path d="M 5 100 L 95 10 L 115 30 L 25 120 Z" fill="#ffffff" />
    <circle cx="50" cy="65" r="14" fill="#0284c7" stroke="#eab308" stroke-width="1.5" />
    <text x="50" y="69" font-family="'Space Grotesk', sans-serif" font-weight="900" font-size="11" fill="#ffffff" text-anchor="middle">RA</text>
  </g>
</svg>
